Coordinates
version=1
nRows=12
nColumns=46
inDegrees=yes

Units are S.I. units (second, meters, Newtons, ...)
Angles are in degrees.

endheader
time	pelvis_tilt	pelvis_list	pelvis_rotation	pelvis_tx	pelvis_ty	pelvis_tz	bb_angle	bb_tx	bb_ty	bb_tz	hip_flexion_r	hip_adduction_r	hip_rotation_r	knee_angle_r	knee_angle_r_beta	ankle_angle_r	subtalar_angle_r	mtp_angle_r	crank_angle_r	hip_flexion_l	hip_adduction_l	hip_rotation_l	knee_angle_l	knee_angle_l_beta	ankle_angle_l	subtalar_angle_l	mtp_angle_l	crank_angle_l	lumbar_extension	lumbar_bending	lumbar_rotation	arm_flex_r	arm_add_r	arm_rot_r	elbow_flex_r	pro_sup_r	wrist_flex_r	wrist_dev_r	arm_flex_l	arm_add_l	arm_rot_l	elbow_flex_l	pro_sup_l	wrist_flex_l	wrist_dev_l
      5.00500000	    -33.68148355	      3.44227573	     16.40933388	      0.42488655	      1.05349887	     -0.24190298	      0.00000000	      0.50000000	      0.00000000	      0.25000000	     35.03492373	    -14.68006179	     -5.38611983	     32.83581808	      0.57309314	    -16.11662058	     -4.72193546	      0.00000000	      0.00000000	     84.87604675	      8.14175389	      4.33671825	    110.50368256	      1.92865310	     22.03034132	      3.81046194	      0.00000000	      0.00000000	    -54.00191610	      1.67238069	    -16.16173692	     22.76594048	    -14.34048421	      9.47121518	    102.25643439	     53.16670677	      0.00000000	      0.00000000	     28.46930899	    -27.91883799	     11.09939382	    114.92980633	     52.20863143	      0.00000000	      0.00000000
      5.01000000	    -33.69904714	      2.96429452	     16.61802995	      0.42493079	      1.05502683	     -0.24246323	      0.00000000	      0.50000000	      0.00000000	      0.25000000	     34.96540092	    -14.39877359	     -5.90399629	     33.87903006	      0.59130062	    -16.27236627	     -4.77129026	      0.00000000	      0.00000000	     84.90463550	      7.93785201	      4.20669425	    109.09264549	      1.90402585	     23.05022371	      3.68875274	      0.00000000	      0.00000000	    -54.18790648	      2.20753656	    -15.93918679	     23.06076619	    -14.18049995	      9.44413913	    102.25562606	     53.16458072	      0.00000000	      0.00000000	     28.62743777	    -27.93140128	     11.08106045	    115.03309519	     52.21483780	      0.00000000	      0.00000000
      5.01500000	    -33.69180523	      2.53523873	     16.72003799	      0.42531259	      1.05670485	     -0.24295103	      0.00000000	      0.50000000	      0.00000000	      0.25000000	     34.92021529	    -14.08324344	     -6.18658858	     34.97305153	      0.61039490	    -16.47182750	     -4.75719666	      0.00000000	      0.00000000	     84.67528581	      7.67918332	      4.07877710	    107.43936928	      1.87517074	     23.94103670	      3.72775375	      0.00000000	      0.00000000	    -54.42685403	      2.68059238	    -15.60204619	     23.25076333	    -14.02277940	      9.42837511	    102.21156827	     53.15602140	      0.00000000	      0.00000000	     28.67114411	    -27.95061821	     11.06799173	    115.08802103	     52.21839197	      0.00000000	      0.00000000
      5.02000000	    -33.54367877	      2.29151643	     16.79525899	      0.42562461	      1.05844150	     -0.24356898	      0.00000000	      0.50000000	      0.00000000	      0.25000000	     34.87983414	    -13.97217088	     -6.49864621	     36.45256190	      0.63621723	    -16.30688959	     -4.64137712	      0.00000000	      0.00000000	     84.09466204	      7.53133882	      3.98214804	    105.63406966	      1.84366232	     25.47167120	      4.60500494	      0.00000000	      0.00000000	    -54.83273748	      3.01498318	    -15.52600059	     23.74247329	    -13.44621464	      9.07662343	    102.03749374	     53.10296976	      0.00000000	      0.00000000	     28.95911206	    -28.07738985	     11.06418134	    115.21500023	     52.21391639	      0.00000000	      0.00000000
      5.02500000	    -33.48676514	      1.82793274	     16.78365081	      0.42632349	      1.05991007	     -0.24416774	      0.00000000	      0.50000000	      0.00000000	      0.25000000	     35.04780504	    -13.67225050	     -6.91269078	     38.03476628	      0.66383190	    -16.27222239	     -4.56746099	      0.00000000	      0.00000000	     83.55027811	      7.21412271	      3.97125979	    103.68862299	      1.80970787	     26.41962152	      4.58269502	      0.00000000	      0.00000000	    -55.06157451	      3.45564328	    -15.13823751	     24.00875999	    -13.21342476	      8.89008003	    101.94020440	     53.07589498	      0.00000000	      0.00000000	     28.93284387	    -28.04808868	     11.01818213	    115.24057244	     52.20206170	      0.00000000	      0.00000000
      5.03000000	    -33.24673292	      1.51316432	     16.59855288	      0.42672989	      1.06162871	     -0.24446391	      0.00000000	      0.50000000	      0.00000000	      0.25000000	     35.18534893	    -13.33933317	     -6.95839855	     39.78649091	      0.69440526	    -16.19381478	     -4.54381759	      0.00000000	      0.00000000	     82.71034052	      6.76200173	      3.90118790	    101.61078449	      1.77344274	     27.23097343	      4.78566607	      0.00000000	      0.00000000	    -55.49410340	      3.72749071	    -14.68260134	     24.36355346	    -13.00551706	      8.66746512	    101.89113885	     53.05054225	      0.00000000	      0.00000000	     29.06528221	    -28.07027947	     10.92610098	    115.20629984	     52.17394994	      0.00000000	      0.00000000
      5.03500000	    -33.15452795	      1.14701265	     16.30930809	      0.42683658	      1.06305244	     -0.24453711	      0.00000000	      0.50000000	      0.00000000	      0.25000000	     35.66907785	    -12.95567787	     -6.88119204	     41.73619282	      0.72843398	    -16.13445783	     -4.50649478	      0.00000000	      0.00000000	     81.98050553	      6.12447005	      3.73649464	     99.36685459	      1.73427878	     27.83139174	      5.16283402	      0.00000000	      0.00000000	    -55.73460026	      3.90184583	    -14.13861289	     24.63809448	    -12.82933788	      8.39955981	    101.86159652	     53.02581107	      0.00000000	      0.00000000	     29.19902002	    -28.06242970	     10.86478501	    115.13675453	     52.14320634	      0.00000000	      0.00000000
      5.04000000	    -33.02135474	      0.93394417	     15.80890501	      0.42741211	      1.06446620	     -0.24451002	      0.00000000	      0.50000000	      0.00000000	      0.25000000	     36.18965102	    -12.58108283	     -6.50799648	     43.78309356	      0.76415914	    -16.09766962	     -4.42760075	      0.00000000	      0.00000000	     81.03809844	      5.50732435	      3.61223080	     97.05949294	      1.69400772	     28.22648388	      5.16879245	      0.00000000	      0.00000000	    -55.96338044	      3.82314900	    -13.53429503	     24.87770533	    -12.68707423	      8.16659078	    101.64062524	     52.71521597	      0.00000000	      0.00000000	     29.33270144	    -27.85436216	     10.85123136	    114.66605442	     51.90209245	      0.00000000	      0.00000000
      5.04500000	    -32.93582574	      0.67273499	     15.24479153	      0.42823946	      1.06583452	     -0.24421982	      0.00000000	      0.50000000	      0.00000000	      0.25000000	     36.81217563	    -12.06470592	     -5.99173721	     45.83946679	      0.80004962	    -16.15404885	     -4.60739296	      0.00000000	      0.00000000	     80.08629443	      4.67599442	      3.41335797	     94.64719185	      1.65190513	     28.51441814	      5.59565686	      0.00000000	      0.00000000	    -56.29872667	      3.62797713	    -12.69473706	     24.84792171	    -12.76920207	      7.75851747	    101.79094949	     52.69469364	      0.00000000	      0.00000000	     29.00420904	    -26.88924681	     10.59199722	    114.78572210	     51.87542230	      0.00000000	      0.00000000
      5.05000000	    -32.59094508	      0.62135745	     14.58271780	      0.42867265	      1.06717955	     -0.24390792	      0.00000000	      0.50000000	      0.00000000	      0.25000000	     37.35642137	    -11.70412370	     -5.40089322	     48.19294640	      0.84112559	    -16.19241375	     -4.64912866	      0.00000000	      0.00000000	     78.80387559	      3.84723433	      3.07810119	     92.24982856	      1.61006324	     28.65090777	      5.97824812	      0.00000000	      0.00000000	    -56.74084550	      3.35463813	    -12.00431173	     24.95044990	    -12.87033150	      7.50521820	    102.05987100	     52.72962255	      0.00000000	      0.00000000	     29.24869844	    -26.68136762	     10.51165000	    114.56862400	     51.81479633	      0.00000000	      0.00000000
      5.05500000	    -32.41023227	      0.14920609	     14.18836437	      0.42958471	      1.06837244	     -0.24428359	      0.00000000	      0.50000000	      0.00000000	      0.25000000	     37.92131928	    -11.15563853	     -5.24485255	     50.28491510	      0.87763733	    -16.41861088	     -4.65627139	      0.00000000	      0.00000000	     77.75144700	      3.22410032	      3.18520575	     89.79077765	      1.56714471	     28.59422207	      6.17048215	      0.00000000	      0.00000000	    -57.01415617	      3.65293812	    -11.14703949	     24.99394118	    -12.88064072	      7.50816149	    102.02264741	     52.72801337	      0.00000000	      0.00000000	     29.05190892	    -26.63211037	     10.54180460	    114.44072981	     51.79745576	      0.00000000	      0.00000000
      5.06000000	    -32.37826213	      0.20460074	     13.40592305	      0.43016221	      1.06902974	     -0.24409994	      0.00000000	      0.50000000	      0.00000000	      0.25000000	     38.94448199	    -10.87215187	     -4.41270536	     52.88392659	      0.92299864	    -16.27681308	     -4.69089435	      0.00000000	      0.00000000	     76.69040755	      2.33980921	      2.55093877	     87.35787421	      1.52468253	     28.50691332	      6.77491464	      0.00000000	      0.00000000	    -57.09852710	      2.97401380	     -9.21888502	     23.53416399	    -14.13634871	      5.72693977	    103.76646923	     52.96618724	      0.00000000	      0.00000000	     31.21045863	    -25.24985033	     12.85474148	    112.06005501	     51.56179989	      0.00000000	      0.00000000
